<mxfile host="app.diagrams.net" modified="2023-12-21T01:13:44.504Z" agent="Mozilla/5.0 (Windows NT 10.0; Win64; x64) AppleWebKit/537.36 (KHTML, like Gecko) Chrome/120.0.0.0 Safari/537.36" version="21.3.4" etag="jECA_c92-Iehe_I2Pt4U" type="github">
  <diagram name="第 1 页" id="LOqOkAyG6llu73WXMhhd">
    <mxGraphModel>
      <root>
        <mxCell id="0" />
        <mxCell id="1" parent="0" />
      </root>
    </mxGraphModel>
  </diagram>
</mxfile>
